<svg width="22" height="22" viewBox="0 0 22 22" fill="none" xmlns="http://www.w3.org/2000/svg">
<path d="M7.28601 10.9216C7.28601 8.91105 8.9164 7.28076 10.9281 7.28076C12.9399 7.28076 14.5711 8.91105 14.5711 10.9216C14.5711 12.9321 12.9399 14.5624 10.9281 14.5624C8.9164 14.5624 7.28601 12.9321 7.28601 10.9216ZM5.31667 10.9216C5.31667 14.0189 7.82892 16.5297 10.9281 16.5297C14.0274 16.5297 16.5396 14.0189 16.5396 10.9216C16.5396 7.82422 14.0274 5.31348 10.9281 5.31348C7.82892 5.31348 5.31667 7.82422 5.31667 10.9216ZM15.4504 5.09112C15.4503 5.35033 15.5271 5.60375 15.6711 5.81933C15.8151 6.03491 16.0198 6.20298 16.2594 6.30227C16.499 6.40156 16.7627 6.42762 17.0171 6.37715C17.2715 6.32668 17.5052 6.20196 17.6887 6.01874C17.8721 5.83552 17.9971 5.60205 18.0478 5.34784C18.0985 5.09363 18.0727 4.8301 17.9735 4.59059C17.8743 4.35107 17.7063 4.14631 17.4908 4.00222C17.2752 3.85812 17.0216 3.78116 16.7623 3.78105H16.7618C16.4141 3.78121 16.0807 3.91927 15.8348 4.16491C15.589 4.41054 15.4507 4.74367 15.4504 5.09112ZM6.51317 19.8115C5.44772 19.763 4.86862 19.5856 4.48377 19.4358C3.97356 19.2373 3.60952 19.0008 3.22677 18.6189C2.84403 18.2369 2.6071 17.8734 2.40935 17.3635C2.25933 16.979 2.08185 16.4001 2.03342 15.3353C1.98044 14.1841 1.96986 13.8383 1.96986 10.9217C1.96986 8.00508 1.98132 7.66022 2.03342 6.50804C2.08194 5.44323 2.26073 4.86543 2.40935 4.47986C2.60798 3.96995 2.84455 3.60613 3.22677 3.22361C3.609 2.8411 3.97268 2.60432 4.48377 2.40668C4.86844 2.25675 5.44772 2.07938 6.51317 2.03098C7.66508 1.97803 8.01111 1.96746 10.9281 1.96746C13.8452 1.96746 14.1915 1.9789 15.3444 2.03098C16.4099 2.07947 16.988 2.25815 17.3738 2.40668C17.884 2.60432 18.2481 2.84162 18.6308 3.22361C19.0136 3.60561 19.2496 3.96995 19.4482 4.47986C19.5983 4.8643 19.7757 5.44323 19.8242 6.50804C19.8771 7.66022 19.8877 8.00508 19.8877 10.9217C19.8877 13.8383 19.8771 14.1831 19.8242 15.3353C19.7756 16.4001 19.5973 16.9789 19.4482 17.3635C19.2496 17.8734 19.013 18.2372 18.6308 18.6189C18.2486 19.0005 17.884 19.2373 17.3738 19.4358C16.9891 19.5857 16.4099 19.7631 15.3444 19.8115C14.1925 19.8644 13.8465 19.875 10.9281 19.875C8.0098 19.875 7.66473 19.8644 6.51317 19.8115ZM6.42269 0.0661411C5.25932 0.119089 4.46436 0.303445 3.77012 0.573427C3.05114 0.852233 2.44248 1.22628 1.83427 1.83317C1.22605 2.44006 0.852744 3.04931 0.573771 3.76786C0.303627 4.46212 0.11916 5.25617 0.0661808 6.41883C0.0123269 7.58334 0 7.95563 0 10.9216C0 13.8875 0.0123269 14.2598 0.0661808 15.4243C0.11916 16.5871 0.303627 17.381 0.573771 18.0753C0.852744 18.7934 1.22614 19.4034 1.83427 20.01C2.44239 20.6166 3.05114 20.9901 3.77012 21.2697C4.46567 21.5397 5.25932 21.7241 6.42269 21.777C7.5885 21.83 7.96041 21.8432 10.9281 21.8432C13.8959 21.8432 14.2684 21.8308 15.4336 21.777C16.597 21.7241 17.3915 21.5397 18.0862 21.2697C18.8047 20.9901 19.4138 20.6169 20.022 20.01C20.6302 19.4031 21.0027 18.7934 21.2825 18.0753C21.5526 17.381 21.738 16.587 21.7901 15.4243C21.8431 14.259 21.8554 13.8875 21.8554 10.9216C21.8554 7.95563 21.8431 7.58334 21.7901 6.41883C21.7371 5.25608 21.5526 4.46169 21.2825 3.76786C21.0027 3.04974 20.6293 2.44102 20.022 1.83317C19.4148 1.22531 18.8047 0.852233 18.087 0.573427C17.3915 0.303445 16.597 0.118215 15.4345 0.0661411C14.2693 0.0131933 13.8967 0 10.929 0C7.96128 0 7.5885 0.0123195 6.42269 0.0661411Z" fill="#4573D9"/>
</svg>