<svg width="19" height="16" viewBox="0 0 19 16" fill="none" xmlns="http://www.w3.org/2000/svg">
<path d="M18.6116 1.85124C18.0068 2.11149 17.3711 2.29272 16.72 2.39044C17.0244 2.33825 17.4723 1.79036 17.6506 1.56859C17.9214 1.23408 18.1278 0.8522 18.2594 0.442362C18.2594 0.411923 18.2898 0.368439 18.2594 0.346697C18.244 0.338324 18.2268 0.333936 18.2093 0.333936C18.1919 0.333936 18.1747 0.338324 18.1593 0.346697C17.4524 0.729538 16.7 1.02173 15.9199 1.21637C15.8927 1.22468 15.8638 1.22542 15.8362 1.21853C15.8086 1.21163 15.7835 1.19736 15.7634 1.17724C15.7027 1.10494 15.6373 1.03667 15.5677 0.972864C15.2495 0.687805 14.8886 0.454497 14.498 0.281471C13.9708 0.0651731 13.4013 -0.0285009 12.8326 0.00752356C12.2807 0.0423749 11.742 0.190389 11.2498 0.442362C10.7651 0.708014 10.3391 1.06891 9.99743 1.50337C9.63803 1.95053 9.37856 2.46948 9.23647 3.0253C9.1193 3.554 9.10601 4.10043 9.19733 4.6342C9.19733 4.72551 9.19733 4.73856 9.11906 4.72551C6.01867 4.26894 3.47487 3.1688 1.39634 0.807625C1.30502 0.703264 1.25719 0.703264 1.18327 0.807625C0.278807 2.18171 0.717993 4.3559 1.84857 5.42995C2.00076 5.57345 2.15731 5.7126 2.32254 5.84305C1.80418 5.80625 1.29848 5.66577 0.835399 5.42995C0.748432 5.37342 0.700599 5.40386 0.696251 5.50822C0.683924 5.65291 0.683924 5.79838 0.696251 5.94306C0.786983 6.63645 1.06024 7.2933 1.48809 7.84645C1.91594 8.39959 2.48302 8.82918 3.13134 9.09129C3.28939 9.15898 3.45407 9.20999 3.62271 9.24348C3.14283 9.33796 2.65066 9.35265 2.166 9.28696C2.06164 9.26522 2.02251 9.32175 2.06164 9.42176C2.70085 11.1611 4.08799 11.6916 5.10551 11.9873C5.24466 12.009 5.3838 12.009 5.54034 12.0438C5.54034 12.0438 5.54034 12.0438 5.51425 12.0699C5.21422 12.6178 4.00102 12.9874 3.44443 13.1788C2.4285 13.5437 1.34534 13.6832 0.27011 13.5875C0.100523 13.5614 0.0613878 13.5658 0.017904 13.5875C-0.0255798 13.6093 0.017904 13.6571 0.0657361 13.7006C0.283155 13.8441 0.500574 13.9702 0.72669 14.0919C1.39984 14.4591 2.11149 14.7507 2.8487 14.9616C6.66657 16.0139 10.9628 15.2399 13.8284 12.3917C16.0808 10.1566 16.8722 7.07364 16.8722 3.98629C16.8722 3.86888 17.0157 3.79931 17.0983 3.73843C17.6682 3.29442 18.1706 2.77004 18.5898 2.18171C18.6624 2.09401 18.6997 1.98235 18.6942 1.86863C18.6942 1.8034 18.6942 1.81645 18.6116 1.85124Z" fill="#4573D9"/>
</svg>